<?xml version="1.0" encoding="UTF-8"?>
<!DOCTYPE svg PUBLIC "-//W3C//DTD SVG 1.1//EN" "http://www.w3.org/Graphics/SVG/1.1/DTD/svg11.dtd">
<svg xmlns="http://www.w3.org/2000/svg" version="1.1" width="1312px" height="1323px" style="shape-rendering:geometricPrecision; text-rendering:geometricPrecision; image-rendering:optimizeQuality; fill-rule:evenodd; clip-rule:evenodd" xmlns:xlink="http://www.w3.org/1999/xlink">
<g><path style="opacity:0.999" fill="#43c2b8" d="M 617.5,14.5 C 798.904,7.61963 957.238,63.7863 1092.5,183C 1221.91,303.68 1292.74,452.846 1305,630.5C 1312.37,811.931 1256.37,970.264 1137,1105.5C 1016.7,1234.89 867.862,1305.72 690.5,1318C 508.981,1325.62 350.647,1269.62 215.5,1150C 86.0903,1029.32 15.257,880.154 3,702.5C -4.22022,521.126 51.7798,362.792 171,227.5C 291.494,98.1784 440.328,27.1784 617.5,14.5 Z M 650.5,352.5 C 666.912,351.47 681.245,356.304 693.5,367C 779.333,452.833 865.167,538.667 951,624.5C 970.333,649.833 970.333,675.167 951,700.5C 936.549,714.541 919.216,720.874 899,719.5C 898.976,786.527 898.309,853.527 897,920.5C 888.938,951.226 869.105,968.393 837.5,972C 801.833,972.667 766.167,972.667 730.5,972C 724.191,970.362 719.691,966.529 717,960.5C 716.667,908.833 716.333,857.167 716,805.5C 713.818,790.985 705.651,781.819 691.5,778C 667.5,777.333 643.5,777.333 619.5,778C 605.807,781.694 597.64,790.528 595,804.5C 594.667,856.167 594.333,907.833 594,959.5C 591.703,966.133 587.203,970.3 580.5,972C 544.833,972.667 509.167,972.667 473.5,972C 439.408,967.576 419.241,948.409 413,914.5C 412.667,849.5 412.333,784.5 412,719.5C 391.781,720.873 374.448,714.54 360,700.5C 340.674,675.206 340.674,649.872 360,624.5C 445.833,538.667 531.667,452.833 617.5,367C 627.31,359.131 638.31,354.298 650.5,352.5 Z"/></g>
</svg>
